<?xml version="1.0" encoding="UTF-8"?>
<svg width="23px" height="23px" viewBox="0 0 23 23" version="1.1" xmlns="http://www.w3.org/2000/svg" xmlns:xlink="http://www.w3.org/1999/xlink">
    <!-- Generator: sketchtool 55.2 (78181) - https://sketchapp.com -->
    <title>D1B7001F-D6E3-4331-B70A-5F4F8E8525A5</title>
    <desc>Created with sketchtool.</desc>
    <g id="Page-1" stroke="none" stroke-width="1" fill="none" fill-rule="evenodd">
        <g id="Index" transform="translate(-1476.000000, -31.000000)" fill="#FFFFFF">
            <g id="Header">
                <g id="Menu" transform="translate(801.000000, 31.000000)">
                    <g id="Search" transform="translate(675.000000, 0.000000)">
                        <path d="M22.472,21.4906667 L15.5746667,14.5933333 C16.8746667,13.0773333 17.6666667,11.112 17.6666667,8.96266667 C17.6666667,4.184 13.7786667,0.296 9,0.296 C6.68533333,0.296 4.508,1.19733333 2.86933333,2.83333333 C1.23333333,4.47066667 0.332,6.648 0.333333333,8.96266667 C0.333333333,13.7413333 4.22133333,17.6293333 9,17.6293333 C11.1493333,17.6293333 13.116,16.8373333 14.632,15.5373333 L21.5293333,22.4346667 L22.472,21.4906667 L22.472,21.4906667 Z M9,16.296 C4.95733333,16.296 1.66666667,13.0066667 1.66666667,8.96266667 C1.66533333,7.00266667 2.428,5.16133333 3.81333333,3.77733333 C5.19733333,2.392 7.04,1.62933333 9,1.62933333 C13.0426667,1.62933333 16.3333333,4.91866667 16.3333333,8.96266667 C16.3333333,13.0053333 13.0426667,16.296 9,16.296 L9,16.296 Z" id="Shape"></path>
                    </g>
                </g>
            </g>
        </g>
    </g>
</svg>